<svg width="413" height="94" viewBox="0 0 413 94" fill="none" xmlns="http://www.w3.org/2000/svg">
<g filter="url(#filter0_d_30_123)">
<path d="M108.519 32.6195V53.8282H119.123C120.576 53.8282 121.943 53.5573 123.224 53.0153C124.505 52.4488 125.626 51.6852 126.587 50.7245C127.547 49.7638 128.299 48.643 128.841 47.3621C129.407 46.0566 129.69 44.6772 129.69 43.2239C129.69 41.7705 129.407 40.4034 128.841 39.1225C128.299 37.817 127.547 36.6839 126.587 35.7232C125.626 34.7625 124.505 34.0112 123.224 33.4693C121.943 32.9028 120.576 32.6195 119.123 32.6195H108.519ZM108.519 75H97.9142V22.0151H119.123C121.069 22.0151 122.941 22.2738 124.739 22.7911C126.537 23.2837 128.212 23.9981 129.764 24.9341C131.341 25.8455 132.769 26.954 134.05 28.2595C135.356 29.5404 136.464 30.9691 137.376 32.5456C138.312 34.1221 139.026 35.8094 139.519 37.6076C140.036 39.4058 140.295 41.2779 140.295 43.2239C140.295 45.0467 140.061 46.8202 139.593 48.5445C139.149 50.2688 138.497 51.9069 137.634 53.4587C136.797 55.0106 135.762 56.4393 134.531 57.7448C133.299 59.0503 131.92 60.1834 130.392 61.1441L136.267 75H124.998L120.379 64.3217L108.519 64.3956V75ZM183.599 75H147.278V22.0151H183.599V32.6195H157.882V43.2239H175.285V53.8282H157.882V64.3956H183.599V75ZM243.604 75H233.037V37.1642C233.037 36.4252 232.889 35.7355 232.593 35.0951C232.322 34.4546 231.941 33.9004 231.448 33.4324C230.98 32.9397 230.426 32.5579 229.785 32.287C229.145 32.016 228.455 31.8805 227.716 31.8805C226.977 31.8805 226.287 32.016 225.647 32.287C225.006 32.5579 224.44 32.9397 223.947 33.4324C223.479 33.9004 223.11 34.4546 222.839 35.0951C222.568 35.7355 222.432 36.4252 222.432 37.1642V75H211.828V37.1642C211.828 36.4252 211.693 35.7355 211.422 35.0951C211.151 34.4546 210.769 33.9004 210.276 33.4324C209.808 32.9397 209.254 32.5579 208.613 32.287C207.973 32.016 207.283 31.8805 206.544 31.8805C205.805 31.8805 205.116 32.016 204.475 32.287C203.835 32.5579 203.268 32.9397 202.775 33.4324C202.307 33.9004 201.938 34.4546 201.667 35.0951C201.396 35.7355 201.261 36.4252 201.261 37.1642V75H190.656V37.1642C190.656 34.9719 191.063 32.9151 191.876 30.9937C192.713 29.0478 193.846 27.3604 195.275 25.9317C196.728 24.4784 198.416 23.3453 200.337 22.5324C202.283 21.6949 204.352 21.2761 206.544 21.2761C208.515 21.2761 210.412 21.6333 212.234 22.3477C214.057 23.0374 215.695 24.0473 217.149 25.3775C218.602 24.0473 220.228 23.0374 222.026 22.3477C223.849 21.6333 225.745 21.2761 227.716 21.2761C229.908 21.2761 231.965 21.6949 233.887 22.5324C235.833 23.3453 237.52 24.4784 238.949 25.9317C240.402 27.3604 241.535 29.0478 242.348 30.9937C243.185 32.9151 243.604 34.9719 243.604 37.1642V75ZM289.421 75H253.1V22.0151H289.421V32.6195H263.704V43.2239H281.107V53.8282H263.704V64.3956H289.421V75ZM339.302 48.5076C339.302 50.9462 338.982 53.2986 338.341 55.5648C337.726 57.8064 336.839 59.9125 335.681 61.8831C334.523 63.8291 333.144 65.615 331.543 67.2407C329.942 68.8418 328.156 70.2213 326.185 71.379C324.215 72.5367 322.096 73.4358 319.83 74.0763C317.588 74.6921 315.248 75 312.81 75H296.848V22.0151H312.81C315.248 22.0151 317.588 22.3354 319.83 22.9758C322.096 23.5916 324.215 24.4784 326.185 25.6361C328.156 26.7939 329.942 28.1856 331.543 29.8114C333.144 31.4125 334.523 33.1984 335.681 35.169C336.839 37.115 337.726 39.221 338.341 41.4873C338.982 43.7288 339.302 46.0689 339.302 48.5076ZM328.698 48.5076C328.698 46.3153 328.279 44.2584 327.441 42.3371C326.629 40.4157 325.495 38.7407 324.042 37.312C322.613 35.8587 320.926 34.7133 318.98 33.8758C317.059 33.0382 315.002 32.6195 312.81 32.6195H307.526V64.3956H312.81C315.002 64.3956 317.059 63.9892 318.98 63.1763C320.926 62.3388 322.613 61.2057 324.042 59.777C325.495 58.3237 326.629 56.6363 327.441 54.715C328.279 52.769 328.698 50.6999 328.698 48.5076ZM356.964 75H346.359V22.0151H356.964V75ZM398.014 53.8282V43.2239C398.014 41.7705 397.731 40.4034 397.164 39.1225C396.622 37.817 395.871 36.6839 394.91 35.7232C393.95 34.7625 392.817 34.0112 391.511 33.4693C390.23 32.9028 388.863 32.6195 387.41 32.6195C385.956 32.6195 384.577 32.9028 383.271 33.4693C381.99 34.0112 380.87 34.7625 379.909 35.7232C378.948 36.6839 378.185 37.817 377.618 39.1225C377.076 40.4034 376.805 41.7705 376.805 43.2239V53.8282H398.014ZM408.618 75H398.014V64.3956H376.805V75H366.238V43.2239C366.238 40.2926 366.792 37.546 367.901 34.9842C369.009 32.3978 370.512 30.1439 372.408 28.2226C374.33 26.3012 376.571 24.7863 379.133 23.6778C381.72 22.5694 384.478 22.0151 387.41 22.0151C390.341 22.0151 393.087 22.5694 395.649 23.6778C398.236 24.7863 400.49 26.3012 402.411 28.2226C404.332 30.1439 405.847 32.3978 406.956 34.9842C408.064 37.546 408.618 40.2926 408.618 43.2239V75Z" fill="#FAF0E4"/>
</g>
<g filter="url(#filter1_d_30_123)">
<path d="M46 47.5L89.5 21.0862V73.9138L46 47.5Z" fill="#FAF0E4"/>
</g>
<g filter="url(#filter2_d_30_123)">
<path d="M0 47.5L43.5 21.0862V73.9138L0 47.5Z" fill="#FAF0E4"/>
</g>
<defs>
<filter id="filter0_d_30_123" x="97.9143" y="21.2761" width="314.704" height="56.7239" filterUnits="userSpaceOnUse" color-interpolation-filters="sRGB">
<feFlood flood-opacity="0" result="BackgroundImageFix"/>
<feColorMatrix in="SourceAlpha" type="matrix" values="0 0 0 0 0 0 0 0 0 0 0 0 0 0 0 0 0 0 127 0" result="hardAlpha"/>
<feOffset dx="4" dy="3"/>
<feComposite in2="hardAlpha" operator="out"/>
<feColorMatrix type="matrix" values="0 0 0 0 0.172549 0 0 0 0 0.0784314 0 0 0 0 0.0313726 0 0 0 1 0"/>
<feBlend mode="normal" in2="BackgroundImageFix" result="effect1_dropShadow_30_123"/>
<feBlend mode="normal" in="SourceGraphic" in2="effect1_dropShadow_30_123" result="shape"/>
</filter>
<filter id="filter1_d_30_123" x="46" y="21.0862" width="47.5" height="55.8275" filterUnits="userSpaceOnUse" color-interpolation-filters="sRGB">
<feFlood flood-opacity="0" result="BackgroundImageFix"/>
<feColorMatrix in="SourceAlpha" type="matrix" values="0 0 0 0 0 0 0 0 0 0 0 0 0 0 0 0 0 0 127 0" result="hardAlpha"/>
<feOffset dx="4" dy="3"/>
<feComposite in2="hardAlpha" operator="out"/>
<feColorMatrix type="matrix" values="0 0 0 0 0.172549 0 0 0 0 0.0784314 0 0 0 0 0.0313726 0 0 0 1 0"/>
<feBlend mode="normal" in2="BackgroundImageFix" result="effect1_dropShadow_30_123"/>
<feBlend mode="normal" in="SourceGraphic" in2="effect1_dropShadow_30_123" result="shape"/>
</filter>
<filter id="filter2_d_30_123" x="0" y="21.0862" width="47.5" height="55.8275" filterUnits="userSpaceOnUse" color-interpolation-filters="sRGB">
<feFlood flood-opacity="0" result="BackgroundImageFix"/>
<feColorMatrix in="SourceAlpha" type="matrix" values="0 0 0 0 0 0 0 0 0 0 0 0 0 0 0 0 0 0 127 0" result="hardAlpha"/>
<feOffset dx="4" dy="3"/>
<feComposite in2="hardAlpha" operator="out"/>
<feColorMatrix type="matrix" values="0 0 0 0 0.172549 0 0 0 0 0.0784314 0 0 0 0 0.0313726 0 0 0 1 0"/>
<feBlend mode="normal" in2="BackgroundImageFix" result="effect1_dropShadow_30_123"/>
<feBlend mode="normal" in="SourceGraphic" in2="effect1_dropShadow_30_123" result="shape"/>
</filter>
</defs>
</svg>
